<?xml version="1.0" encoding="UTF-8" standalone="no"?>
<!-- Created with Inkscape (http://www.inkscape.org/) -->

<svg
   xmlns:dc="http://purl.org/dc/elements/1.1/"
   xmlns:cc="http://creativecommons.org/ns#"
   xmlns:rdf="http://www.w3.org/1999/02/22-rdf-syntax-ns#"
   xmlns:svg="http://www.w3.org/2000/svg"
   xmlns="http://www.w3.org/2000/svg"
   xmlns:sodipodi="http://sodipodi.sourceforge.net/DTD/sodipodi-0.dtd"
   xmlns:inkscape="http://www.inkscape.org/namespaces/inkscape"
   width="283.87mm"
   height="55.768368mm"
   viewBox="0 0 1005.8386 197.60445"
   id="svg5210"
   version="1.1"
   inkscape:version="0.91 r13725"
   sodipodi:docname="FT_Logo_Full.svg">
  <defs
     id="defs5212" />
  <sodipodi:namedview
     id="base"
     pagecolor="#ffffff"
     bordercolor="#666666"
     borderopacity="1.0"
     inkscape:pageopacity="0.0"
     inkscape:pageshadow="2"
     inkscape:zoom="0.49497475"
     inkscape:cx="432.24868"
     inkscape:cy="265.0604"
     inkscape:document-units="px"
     inkscape:current-layer="layer1"
     showgrid="false"
     inkscape:window-width="1600"
     inkscape:window-height="847"
     inkscape:window-x="0"
     inkscape:window-y="27"
     inkscape:window-maximized="1"
     fit-margin-top="0"
     fit-margin-left="0"
     fit-margin-right="0"
     fit-margin-bottom="0" />
  <metadata
     id="metadata5215">
    <rdf:RDF>
      <cc:Work
         rdf:about="">
        <dc:format>image/svg+xml</dc:format>
        <dc:type
           rdf:resource="http://purl.org/dc/dcmitype/StillImage" />
        <dc:title></dc:title>
      </cc:Work>
    </rdf:RDF>
  </metadata>
  <g
     inkscape:label="Layer 1"
     inkscape:groupmode="layer"
     id="layer1"
     transform="translate(-23.261825,-581.51275)">
    <g
       id="g4190">
      <g
         id="g5141"
         transform="matrix(7.4548031,0,0,-7.4548031,84.59249,583.18111)">
        <path
           d="m 0,0 0,-4.021 -3.723,0 0,-7.035 3.574,0 0,-4.021 -3.574,0 0,-10.984 -4.504,0 L -8.227,0 0,0 Z"
           style="fill:#231f20;fill-opacity:1;fill-rule:nonzero;stroke:none"
           id="path5143"
           inkscape:connector-curvature="0" />
      </g>
      <g
         id="g5145"
         transform="matrix(7.4548031,0,0,-7.4548031,156.34795,719.72626)">
        <path
           d="M 0,0 2.121,0 1.042,12.025 0,0 Z m 2.829,-7.744 -0.373,3.798 -2.792,0 -0.336,-3.798 -4.132,0 2.979,26.06 6.179,0 2.979,-26.06 -4.504,0 z"
           style="fill:#231f20;fill-opacity:1;fill-rule:nonzero;stroke:none"
           id="path5147"
           inkscape:connector-curvature="0" />
      </g>
      <g
         id="g5149"
         transform="matrix(7.4548031,0,0,-7.4548031,288.03407,583.18111)">
        <path
           d="m 0,0 0,-22.003 3.276,0 0,-4.058 -7.78,0 L -4.504,0 0,0 Z"
           style="fill:#231f20;fill-opacity:1;fill-rule:nonzero;stroke:none"
           id="path5151"
           inkscape:connector-curvature="0" />
      </g>
      <g
         id="g5153"
         transform="matrix(7.4548031,0,0,-7.4548031,436.9445,706.40304)">
        <path
           d="m 0,0 0,-5.547 c 0,-2.829 -1.414,-4.207 -4.206,-4.207 l -2.532,0 c -2.829,0 -4.206,1.378 -4.206,4.207 l 0,5.266 4.467,0 0,-4.819 c 0,-0.559 0.222,-0.82 0.781,-0.82 l 0.411,0 c 0.557,0 0.781,0.261 0.781,0.82 l 0,4.169 c 0,0.819 -0.224,1.265 -0.857,1.75 L -9.008,3.61 c -1.49,1.08 -1.936,2.122 -1.936,3.949 l 0,4.986 c 0,2.83 1.377,4.208 4.206,4.208 l 2.457,0 c 2.792,0 4.208,-1.378 4.208,-4.208 l 0,-4.593 -4.431,0 0,4.148 c 0,0.558 -0.261,0.819 -0.781,0.819 l -0.374,0 c -0.558,0 -0.781,-0.261 -0.781,-0.819 l 0,-3.612 c 0,-0.819 0.223,-1.265 0.857,-1.75 L -1.936,3.946 C -0.483,2.866 0,1.899 0,0"
           style="fill:#231f20;fill-opacity:1;fill-rule:nonzero;stroke:none"
           id="path5155"
           inkscape:connector-curvature="0" />
      </g>
      <g
         id="g5157"
         transform="matrix(7.4548031,0,0,-7.4548031,545.88378,583.18111)">
        <path
           d="m 0,0 0,-4.021 -3.871,0 0,-6.813 3.722,0 0,-4.02 -3.722,0 0,-7.149 3.946,0 0,-4.058 -8.452,0 L -8.377,0 0,0 Z"
           style="fill:#231f20;fill-opacity:1;fill-rule:nonzero;stroke:none"
           id="path5159"
           inkscape:connector-curvature="0" />
      </g>
      <g
         id="g5161"
         transform="matrix(7.4548031,0,0,-7.4548031,657.13031,583.18111)">
        <path
           d="m 0,0 0,-26.061 -8.451,0 0,4.058 3.945,0 0,7.149 -3.723,0 0,4.02 3.723,0 0,6.813 -3.872,0 0,4.021 L 0,0 Z"
           style="fill:#231f20;fill-opacity:1;fill-rule:nonzero;stroke:none"
           id="path5163"
           inkscape:connector-curvature="0" />
      </g>
      <g
         id="g5165"
         transform="matrix(7.4548031,0,0,-7.4548031,1008.8457,583.87217)">
        <path
           d="m 0,0 0,-22.04 2.717,0 0,-4.021 -10.014,0 0,4.021 2.755,0 0,22.04 L 0,0 Z"
           style="fill:#231f20;fill-opacity:1;fill-rule:nonzero;stroke:none"
           id="path5167"
           inkscape:connector-curvature="0" />
      </g>
      <g
         id="g5169"
         transform="matrix(7.4548031,0,0,-7.4548031,869.0972,749.28306)">
        <path
           d="m 0,0 0.968,0 0,8.898 -0.968,0 c -0.559,0 -0.818,-0.261 -0.818,-0.783 l 0,-7.297 C -0.818,0.262 -0.559,0 0,0 m 0.968,22.188 4.506,0 0,-26.06 -6.628,0 c -2.791,0 -4.17,1.377 -4.17,4.206 l 0,8.267 c 0,2.791 1.379,4.17 4.17,4.17 l 2.122,0 0,9.417 z"
           style="fill:#231f20;fill-opacity:1;fill-rule:nonzero;stroke:none"
           id="path5171"
           inkscape:connector-curvature="0" />
      </g>
      <g
         id="g5173"
         transform="matrix(7.4548031,0,0,-7.4548031,700.76029,613.85166)">
        <path
           d="m 0,0 c 0,2.829 1.379,4.207 4.208,4.207 l 2.719,0 c 2.829,0 4.206,-1.378 4.206,-4.207 l 0,-22.039 -4.505,0 0,21.556 c 0,0.558 -0.26,0.818 -0.819,0.818 l -0.484,0 c -0.558,0 -0.819,-0.26 -0.819,-0.818 l 0,-21.556 -4.506,0 L 0,0 Z"
           style="fill:#231f20;fill-opacity:1;fill-rule:nonzero;stroke:none"
           id="path5175"
           inkscape:connector-curvature="0" />
      </g>
      <g
         id="g5177"
         transform="matrix(7.4548031,0,0,-7.4548031,849.14293,677.56711)">
        <path
           d="m 0,0 4.503,0 -4.198,12.568 -4.503,0 L 0,0 Z"
           style="fill:#231f20;fill-opacity:1;fill-rule:nonzero;stroke:none"
           id="path5179"
           inkscape:connector-curvature="0" />
      </g>
    </g>
  </g>
</svg>
