<?xml version="1.0" encoding="UTF-8" standalone="no"?>
<svg
   xmlns:dc="http://purl.org/dc/elements/1.1/"
   xmlns:cc="http://creativecommons.org/ns#"
   xmlns:rdf="http://www.w3.org/1999/02/22-rdf-syntax-ns#"
   xmlns:svg="http://www.w3.org/2000/svg"
   xmlns="http://www.w3.org/2000/svg"
   xmlns:sodipodi="http://sodipodi.sourceforge.net/DTD/sodipodi-0.dtd"
   xmlns:inkscape="http://www.inkscape.org/namespaces/inkscape"
   enable-background="new 0 0 32 32"
   version="1.1"
   viewBox="0 0 32 32"
   xml:space="preserve"
   id="svg2"
   inkscape:version="0.91 r13725"
   sodipodi:docname="vimeo_light.svg"><metadata
     id="metadata19"><rdf:RDF><cc:Work
         rdf:about=""><dc:format>image/svg+xml</dc:format><dc:type
           rdf:resource="http://purl.org/dc/dcmitype/StillImage" /></cc:Work></rdf:RDF></metadata><defs
     id="defs17" /><sodipodi:namedview
     pagecolor="#ffffff"
     bordercolor="#666666"
     borderopacity="1"
     objecttolerance="10"
     gridtolerance="10"
     guidetolerance="10"
     inkscape:pageopacity="0"
     inkscape:pageshadow="2"
     inkscape:window-width="640"
     inkscape:window-height="480"
     id="namedview15"
     showgrid="false"
     inkscape:zoom="7.375"
     inkscape:cx="16"
     inkscape:cy="16"
     inkscape:window-x="0"
     inkscape:window-y="27"
     inkscape:window-maximized="0"
     inkscape:current-layer="svg2" /><g
     id="Flat_copy"><g
       id="g5"><g
         id="g7"><path
           d="M16,31.625c-8.615,0-15.625-7.01-15.625-15.625S7.385,0.375,16,0.375S31.625,7.385,31.625,16     S24.615,31.625,16,31.625z"
           fill="#FFFFFF"
           id="path9"
           style="fill:none" /><path
           d="M16,0.75c8.409,0,15.25,6.841,15.25,15.25S24.409,31.25,16,31.25S0.75,24.409,0.75,16S7.591,0.75,16,0.75      M16,0C7.163,0,0,7.163,0,16c0,8.836,7.163,16,16,16s16-7.164,16-16C32,7.163,24.837,0,16,0L16,0z"
           fill="#E5E5E5"
           id="path11"
           style="fill:none" /></g></g><path
       d="M7.659,14.357c0,0,1.521-1.199,2.028-0.6c0.507,0.6,2.442,7.836,3.088,9.171   c0.564,1.171,2.119,2.718,3.824,1.613c1.705-1.105,7.373-5.945,8.388-11.66c1.014-5.714-6.821-4.517-7.651,0.461   c2.075-1.245,3.182,0.506,2.12,2.489c-1.06,1.981-2.028,3.273-2.535,3.273c-0.506,0-0.895-1.326-1.475-3.643   c-0.599-2.395-0.596-6.71-3.087-6.221c-2.35,0.461-5.438,4.149-5.438,4.149L7.659,14.357z"
       fill="#333333"
       id="path13" /></g></svg>